<svg width="59" height="25" viewBox="0 0 59 25" fill="none" xmlns="http://www.w3.org/2000/svg">
<path d="M0 10.983C0 9.18411 1.45828 7.72583 3.25716 7.72583C5.05604 7.72583 6.51432 9.18411 6.51432 10.983V24.2778H0V10.983Z" fill="white" fill-opacity="0.5"/>
<path d="M17.4277 6.52742C17.4277 4.72854 18.886 3.27026 20.6849 3.27026C22.4838 3.27026 23.9421 4.72855 23.9421 6.52743V24.2774H17.4277V6.52742Z" fill="white"/>
<path d="M52.2812 3.83773C52.2812 2.03885 53.7395 0.580566 55.5384 0.580566C57.3373 0.580566 58.7956 2.03885 58.7956 3.83773V24.2776H52.2812V3.83773Z" fill="white"/>
<path d="M34.8545 10.983C34.8545 9.18411 36.3128 7.72583 38.1117 7.72583C39.9105 7.72583 41.3688 9.18411 41.3688 10.983V24.2778H34.8545V10.983Z" fill="white" fill-opacity="0.5"/>
</svg>
